<svg xmlns="http://www.w3.org/2000/svg" viewBox="0 0 440 440" font-family="Georgia, serif">
<rect x="0" y="0" width="440" height="440" fill="#fafaf7" />
<rect x="20" y="20" width="400" height="400" fill="none" stroke="#111" stroke-width="1.5" />
<line x1="120" y1="20" x2="120" y2="420" stroke="#111" stroke-width="0.5" opacity="0.25" />
<line x1="220" y1="20" x2="220" y2="420" stroke="#111" stroke-width="0.5" opacity="0.25" />
<line x1="320" y1="20" x2="320" y2="420" stroke="#111" stroke-width="0.5" opacity="0.25" />
<line x1="20" y1="120" x2="420" y2="120" stroke="#111" stroke-width="0.5" opacity="0.25" />
<line x1="20" y1="220" x2="420" y2="220" stroke="#111" stroke-width="0.5" opacity="0.25" />
<line x1="20" y1="320" x2="420" y2="320" stroke="#111" stroke-width="0.5" opacity="0.25" />
<g stroke="#111" stroke-width="3" stroke-linecap="round">
<line x1="70.0" y1="30" x2="70.0" y2="110" />
<line x1="30" y1="70.0" x2="110" y2="70.0" />
<line x1="30" y1="110" x2="110" y2="30" />
<line x1="30" y1="30" x2="110" y2="110" />
<line x1="170.0" y1="30" x2="170.0" y2="110" />
<line x1="230" y1="70.0" x2="310" y2="70.0" />
<line x1="370.0" y1="30" x2="370.0" y2="110" />
<line x1="330" y1="70.0" x2="410" y2="70.0" />
<line x1="30" y1="210" x2="110" y2="130" />
<line x1="170.0" y1="130" x2="170.0" y2="210" />
<line x1="130" y1="210" x2="210" y2="130" />
<line x1="230" y1="170.0" x2="310" y2="170.0" />
<line x1="230" y1="210" x2="310" y2="130" />
<line x1="370.0" y1="130" x2="370.0" y2="210" />
<line x1="330" y1="170.0" x2="410" y2="170.0" />
<line x1="330" y1="210" x2="410" y2="130" />
<line x1="30" y1="230" x2="110" y2="310" />
<line x1="170.0" y1="230" x2="170.0" y2="310" />
<line x1="130" y1="230" x2="210" y2="310" />
<line x1="230" y1="270.0" x2="310" y2="270.0" />
<line x1="230" y1="230" x2="310" y2="310" />
<line x1="370.0" y1="230" x2="370.0" y2="310" />
<line x1="330" y1="270.0" x2="410" y2="270.0" />
<line x1="330" y1="230" x2="410" y2="310" />
<line x1="30" y1="410" x2="110" y2="330" />
<line x1="30" y1="330" x2="110" y2="410" />
<line x1="170.0" y1="330" x2="170.0" y2="410" />
<line x1="130" y1="410" x2="210" y2="330" />
<line x1="130" y1="330" x2="210" y2="410" />
<line x1="230" y1="370.0" x2="310" y2="370.0" />
<line x1="230" y1="410" x2="310" y2="330" />
<line x1="230" y1="330" x2="310" y2="410" />
<line x1="370.0" y1="330" x2="370.0" y2="410" />
<line x1="330" y1="370.0" x2="410" y2="370.0" />
<line x1="330" y1="410" x2="410" y2="330" />
<line x1="330" y1="330" x2="410" y2="410" />
</g>
</svg>