<svg xmlns="http://www.w3.org/2000/svg" viewBox="0 0 840 164" font-family="Georgia, serif">
<rect x="0" y="0" width="840" height="164" fill="#fafaf7" />
<g stroke="#111" stroke-width="3" stroke-linecap="round">
<rect x="20" y="44" width="100" height="100" fill="none" stroke="#111" stroke-width="1" stroke-opacity="0.3" />
<line x1="30" y1="94.0" x2="110" y2="94.0" />
<rect x="120" y="44" width="100" height="100" fill="none" stroke="#111" stroke-width="1" stroke-opacity="0.3" />
<line x1="130" y1="94.0" x2="210" y2="94.0" />
<line x1="130" y1="134" x2="210" y2="54" />
<rect x="220" y="44" width="100" height="100" fill="none" stroke="#111" stroke-width="1" stroke-opacity="0.3" />
<line x1="230" y1="94.0" x2="310" y2="94.0" />
<rect x="320" y="44" width="100" height="100" fill="none" stroke="#111" stroke-width="1" stroke-opacity="0.3" />
<line x1="370.0" y1="54" x2="370.0" y2="134" />
<rect x="420" y="44" width="100" height="100" fill="none" stroke="#111" stroke-width="1" stroke-opacity="0.3" />
<line x1="430" y1="94.0" x2="510" y2="94.0" />
<rect x="520" y="44" width="100" height="100" fill="none" stroke="#111" stroke-width="1" stroke-opacity="0.3" />
<line x1="530" y1="54" x2="610" y2="134" />
<rect x="620" y="44" width="100" height="100" fill="none" stroke="#111" stroke-width="1" stroke-opacity="0.3" />
<line x1="670.0" y1="54" x2="670.0" y2="134" />
<rect x="720" y="44" width="100" height="100" fill="none" stroke="#111" stroke-width="1" stroke-opacity="0.3" />
<line x1="730" y1="94.0" x2="810" y2="94.0" />
</g>
<g font-size="16" fill="#111" text-anchor="middle">
<text x="70.0" y="18">S</text>
<text x="170.0" y="18">T</text>
<text x="270.0" y="18">R</text>
<text x="370.0" y="18">A</text>
<text x="470.0" y="18">N</text>
<text x="570.0" y="18">G</text>
<text x="670.0" y="18">E</text>
<text x="770.0" y="18">R</text>
</g>
</svg>